<?xml version="1.0" standalone="no"?>
<!DOCTYPE svg PUBLIC "-//W3C//DTD SVG 20010904//EN"
 "http://www.w3.org/TR/2001/REC-SVG-20010904/DTD/svg10.dtd">
<svg version="1.0" xmlns="http://www.w3.org/2000/svg"
 width="700.000000pt" height="700.000000pt" viewBox="0 0 700.000000 700.000000"
 preserveAspectRatio="xMidYMid meet">
<metadata>
Created by potrace 1.11, written by Peter Selinger 2001-2013
</metadata>
<g transform="translate(0.000000,700.000000) scale(0.100000,-0.100000)"
fill="#000000" stroke="none">
<path d="M435 6988 c-88 -16 -203 -79 -273 -150 -73 -73 -134 -186 -151 -282
-15 -84 -15 -6028 0 -6112 38 -210 223 -395 433 -433 84 -15 6028 -15 6112 0
210 38 395 223 433 433 15 84 15 6028 0 6112 -38 210 -223 395 -433 433 -77
14 -6047 13 -6121 -1z m2425 -2118 l0 -270 -270 0 -270 0 0 270 0 270 270 0
270 0 0 -270z m3550 -410 l0 -410 198 -2 197 -3 0 -205 0 -205 -197 -3 -198
-2 0 -808 c0 -551 4 -820 11 -847 11 -41 39 -78 74 -98 11 -7 83 -14 165 -17
l145 -5 3 -252 2 -253 -198 0 c-165 0 -212 3 -276 20 -122 31 -201 75 -282
155 -76 75 -115 140 -155 260 l-24 70 -3 888 -3 887 -134 0 -135 0 0 210 0
210 135 0 135 0 0 410 0 410 270 0 270 0 0 -410z m-1832 -409 c374 -82 666
-342 792 -704 52 -150 62 -233 67 -559 l5 -298 -844 0 -844 0 7 -87 c29 -354
268 -573 626 -573 206 0 371 62 545 203 32 26 60 47 62 47 7 0 381 -321 384
-329 5 -14 -166 -169 -242 -220 -242 -164 -536 -236 -852 -210 -455 37 -772
250 -941 634 -155 353 -174 950 -43 1355 35 108 101 243 159 328 151 220 391
375 656 421 33 6 71 13 85 15 58 10 289 -4 378 -23z m-1720 -1533 l-3 -1533
-23 -75 c-65 -211 -193 -360 -387 -450 -128 -60 -187 -72 -397 -77 l-188 -5 0
256 0 256 107 0 c185 0 274 42 324 152 l24 53 3 1478 2 1477 270 0 270 0 -2
-1532z"/>
<path d="M4198 3555 c-156 -31 -293 -135 -362 -276 -43 -88 -76 -212 -76 -286
l0 -53 566 0 567 0 -6 73 c-20 222 -135 411 -302 493 -123 60 -250 76 -387 49z"/>
</g>
</svg>
