<?xml version="1.0" encoding="utf-8"?>
<!-- Generator: Adobe Illustrator 22.1.0, SVG Export Plug-In . SVG Version: 6.00 Build 0)  -->
<svg version="1.1" id="Layer_1" xmlns="http://www.w3.org/2000/svg" xmlns:xlink="http://www.w3.org/1999/xlink" x="0px" y="0px"
	 viewBox="0 0 320 200" style="enable-background:new 0 0 320 200;" xml:space="preserve">
<style type="text/css">
	.st0{fill:#87783D;}
	.st1{fill:#062C7D;}
	.st2{fill:url(#_Clipping_Path_2_1_);}
	.st3{clip-path:url(#SVGID_2_);}
	.st4{fill:#071017;}
	.st5{fill:#FFFFFF;}
	.st6{fill:#00257D;}
	.st7{fill:#000110;}
	.st8{fill:#001017;}
</style>
<title>plane</title>
<path class="st0" d="M130.4,95.2l-0.1,11.7c-2.1,1.5-4.6,2.3-7.2,2.5c-4.6,0.4-2.4,1.5-2.4,1.5h15.2c0.5-0.6,0.5-1.5,0-2.1
	c-0.9-1.1-4.3-2.1-4.3-2.1l0.1-11.5L130.4,95.2z"/>
<path class="st0" d="M127.3,95.2l-0.1,11.7c-2.1,1.5-4.6,2.3-7.2,2.5c-4.6,0.4-2.4,1.5-2.4,1.5h15.2c0.5-0.6,0.5-1.5,0-2.1
	c-0.9-1.1-4.3-2.1-4.3-2.1l0.1-11.5L127.3,95.2z"/>
<path class="st1" d="M221.2,96.3c0,0,12.5-3.9,16.9-9S281.5,31,281.5,31l16.9,1.7l-15,74.3L221.2,96.3z"/>
<linearGradient id="_Clipping_Path_2_1_" gradientUnits="userSpaceOnUse" x1="158.5454" y1="168.1004" x2="145.4354" y2="21.6004" gradientTransform="matrix(1 0 0 -1 0 200)">
	<stop  offset="0" style="stop-color:#FFFFFF"/>
	<stop  offset="1" style="stop-color:#8B8B8B"/>
</linearGradient>
<path id="_Clipping_Path_2" class="st2" d="M40.6,59.7c-7.7,1.5-19,5.9-22,18.3c0,0-12.3,6.8-10.8,13s4.6,26,47.4,30.8
	S195,145,196.9,145s42,0.7,99.4-26c0,0,1.9-6.8-3.1-8.9s-20-15-70.5-22.6c-44.9-6.7-148.6-24.3-170.7-28
	C48.3,58.9,44.4,58.9,40.6,59.7z"/>
<g>
	<defs>
		<path id="SVGID_1_" d="M40.6,59.7c-7.7,1.5-19,5.9-22,18.3c0,0-12.3,6.8-10.8,13s4.6,26,47.4,30.8S195,145,196.9,145
			s42,0.7,99.4-26c0,0,1.9-6.8-3.1-8.9s-20-15-70.5-22.6c-44.9-6.7-148.6-24.3-170.7-28C48.3,58.9,44.4,58.9,40.6,59.7z"/>
	</defs>
	<clipPath id="SVGID_2_">
		<use xlink:href="#SVGID_1_"  style="overflow:visible;"/>
	</clipPath>
	<g class="st3">
		<path class="st4" d="M11.6,101.9c0,0,226.1,37.6,230.8,39s-32.8,6.1-39.3,6.1S39.8,119.7,37.8,119S17.4,112.9,11.6,101.9z"/>
	</g>
</g>
<ellipse class="st5" cx="142.3" cy="90.5" rx="2.3" ry="5"/>
<ellipse class="st4" cx="142.3" cy="89.7" rx="2.3" ry="5"/>
<ellipse class="st5" cx="149.7" cy="92.1" rx="2.3" ry="5"/>
<ellipse class="st4" cx="149.7" cy="91.3" rx="2.3" ry="5"/>
<ellipse class="st5" cx="157.1" cy="93" rx="2.3" ry="5"/>
<ellipse class="st4" cx="157.1" cy="92.1" rx="2.3" ry="5"/>
<ellipse class="st5" cx="165.1" cy="93.8" rx="2.3" ry="5"/>
<ellipse class="st4" cx="165.1" cy="93" rx="2.3" ry="5"/>
<path class="st4" d="M25.6,69c0,0,7.4-0.8,8.6-0.8s-4,7.4-4,7.4h-8.6L25.6,69z"/>
<polygon class="st4" points="35.3,68.2 39.9,68.2 41,75.6 32.5,75.6 "/>
<polygon class="st4" points="41,68.2 44.5,68.2 47.9,75.6 42.2,75.6 "/>
<polygon class="st4" points="119.3,98.3 236.9,62.8 247.9,63.5 254.9,56.6 257,56.8 253.8,64 254.3,73.9 252.6,72.2 249.4,67.8 
	225.7,80.2 229.3,86.2 222.4,91.5 222.1,98.1 213.3,96.7 196,107 198.3,114.6 187.1,107.2 167.2,120.7 105.4,108.9 "/>
<path class="st6" d="M161.7,109.5c0,0-22.9-14.1-42.8-14.1c-9.3,0-12.1,7.5-12.1,14.9c0,9.7-0.2,17.2,3.4,19
	c8.6,4.3,35.2,5.4,48,5.7c5.7,0.1,10.4-6.7,9.9-14.9C167.8,115.8,166.2,111.7,161.7,109.5z"/>
<ellipse class="st7" cx="111.7" cy="114" rx="3.2" ry="13.6"/>
<path class="st8" d="M237.8,116.9l63.5-16.5l13.7,0.8c0,0-40.6,19.8-50.9,19.8S245.8,122.7,237.8,116.9z"/>
<path id="path19" class="st5" d="M259.4,78.5l1,0.1l-0.3,8.9c0,1.4-0.7,2.3-1.5,2.2h-0.4l0-1.6h0.3c0.3,0,0.6-0.2,0.6-0.8
	L259.4,78.5L259.4,78.5z M259.5,75.1l1,0.1l-0.1,1.7l-1-0.1L259.5,75.1z"/>
<path id="path21" class="st5" d="M261.8,82c0.1-1.3,0.5-1.9,1.1-1.8s0.9,0.7,0.9,2L261.8,82L261.8,82z M264.7,83.6v-1.4
	c0.1-2.1-0.8-3.6-1.8-3.6s-2,0.9-2.1,4.1c-0.1,3.4,1,4.3,2,4.3c0.6,0,1.3-0.3,1.7-1.2l-0.6-1.1c-0.2,0.4-0.6,0.7-1.1,0.7
	c-0.6,0-1.1-0.8-1-2.1L264.7,83.6L264.7,83.6z"/>
<path id="path23" class="st5" d="M265.6,76.4l0.9,0.1l-0.1,2.6h0.7v1.3h-0.7l-0.2,4.7c0,0.4,0.1,0.6,0.3,0.6h0.4l0,1.6h-0.5
	c-0.7,0-1.1-0.8-1.1-2.1l0.2-4.9H265v-1.3h0.5L265.6,76.4L265.6,76.4z"/>
<path id="path25" class="st5" d="M270.2,82.3c0.7,0.1,1,0.9,1,1.8s-0.4,1.7-1.1,1.7l-1.5-0.1l0.1-3.5L270.2,82.3L270.2,82.3z
	 M267.5,87.3l2.8,0.2c1,0.1,1.9-1.2,2-3.2c0-1.2-0.3-2.4-1-2.8l0,0c0.7-0.6,1.1-1.5,1.1-2.4c0.1-1.8-0.6-3.2-1.9-3.2l-2.6-0.2
	L267.5,87.3L267.5,87.3z M270.3,77.5c0.7,0,1,0.8,1,1.7s-0.4,1.6-1.1,1.6l-1.5-0.1l0.1-3.3L270.3,77.5L270.3,77.5z"/>
<path id="path27" class="st5" d="M273.1,76.1l1,0.1l-0.3,9.4c0,0.4,0.1,0.6,0.3,0.6h0.3l0,1.6h-0.4c-0.7,0-1.2-0.6-1.1-2.1
	L273.1,76.1L273.1,76.1z"/>
<path id="path29" class="st5" d="M275,79.5l0.9,0.1l-0.2,4.9c0,1.1,0.3,1.8,0.9,1.8s1-0.6,1-1.7l0.2-4.9l0.9,0.1l-0.3,8.2l-0.9-0.1
	v-0.9l0,0c-0.2,0.5-0.7,0.9-1.3,0.9c-0.7,0-1.5-1.1-1.5-3L275,79.5L275,79.5z"/>
<path id="path31" class="st5" d="M280.1,83.3c0.1-1.3,0.5-1.9,1-1.8s1,0.7,0.9,2L280.1,83.3L280.1,83.3z M283,84.8l0-1.4
	c0.1-2.1-0.8-3.6-1.8-3.6s-2,0.9-2.1,4.1c-0.1,3.4,1,4.3,2,4.3c0.6,0,1.2-0.3,1.7-1.2l-0.7-1.1c-0.2,0.4-0.6,0.7-1,0.7
	c-0.6,0-1.1-0.8-1.1-2.1L283,84.8L283,84.8z"/>
<ellipse class="st5" cx="206.3" cy="104.5" rx="2.3" ry="5"/>
<ellipse class="st4" cx="206.3" cy="103.7" rx="2.3" ry="5"/>
<ellipse class="st5" cx="213.8" cy="106.2" rx="2.3" ry="5"/>
<ellipse class="st4" cx="213.8" cy="105.3" rx="2.3" ry="5"/>
<ellipse class="st5" cx="221.2" cy="107" rx="2.3" ry="5"/>
<ellipse class="st4" cx="221.2" cy="106.2" rx="2.3" ry="5"/>
<ellipse class="st5" cx="229.2" cy="107.8" rx="2.3" ry="5"/>
<ellipse class="st4" cx="229.2" cy="107" rx="2.3" ry="5"/>
<ellipse class="st5" cx="61.6" cy="76.4" rx="2.3" ry="5"/>
<ellipse class="st4" cx="61.6" cy="75.6" rx="2.3" ry="5"/>
<ellipse class="st5" cx="70.8" cy="78.1" rx="2.3" ry="5"/>
<ellipse class="st4" cx="70.8" cy="77.3" rx="2.3" ry="5"/>
<ellipse class="st5" cx="78.8" cy="79.7" rx="2.3" ry="5"/>
<ellipse class="st4" cx="78.8" cy="78.9" rx="2.3" ry="5"/>
<ellipse class="st5" cx="86.8" cy="81.4" rx="2.3" ry="5"/>
<ellipse class="st4" cx="86.8" cy="80.6" rx="2.3" ry="5"/>
<ellipse class="st5" cx="94.2" cy="83" rx="2.3" ry="5"/>
<ellipse class="st4" cx="94.2" cy="82.2" rx="2.3" ry="5"/>
<ellipse class="st5" cx="101.7" cy="84.7" rx="2.3" ry="5"/>
<ellipse class="st4" cx="101.7" cy="83.9" rx="2.3" ry="5"/>
<ellipse class="st5" cx="109.7" cy="85.5" rx="2.3" ry="5"/>
<ellipse class="st4" cx="109.7" cy="84.7" rx="2.3" ry="5"/>
<ellipse class="st5" cx="117.1" cy="87.2" rx="2.3" ry="5"/>
<ellipse class="st4" cx="117.1" cy="86.3" rx="2.3" ry="5"/>
<ellipse class="st5" cx="124.5" cy="88" rx="2.3" ry="5"/>
<ellipse class="st4" cx="124.5" cy="87.2" rx="2.3" ry="5"/>
<ellipse class="st5" cx="132.5" cy="88.8" rx="2.3" ry="5"/>
<ellipse class="st4" cx="132.5" cy="88" rx="2.3" ry="5"/>
</svg>
