<?xml version="1.0" encoding="utf-8"?>
<!-- Generator: Adobe Illustrator 22.1.0, SVG Export Plug-In . SVG Version: 6.00 Build 0)  -->
<svg version="1.1" id="Layer_1" xmlns="http://www.w3.org/2000/svg" xmlns:xlink="http://www.w3.org/1999/xlink" x="0px" y="0px"
	 viewBox="0 0 43.8 14.4" style="enable-background:new 0 0 43.8 14.4;" xml:space="preserve">
<style type="text/css">
	.st0{fill:#FFFFFF;}
	.st1{fill:none;stroke:#FFFFFF;stroke-width:0.504;stroke-miterlimit:10;}
</style>
<g id="Layer_1_1_">
	<path class="st0" d="M1.7,5.3h0.8v4.4c0,0.6-0.5,1.1-1.1,1.2c0,0-0.1,0-0.1,0H1v-0.8h0.2c0.3,0,0.5-0.1,0.5-0.4L1.7,5.3 M1.7,3.6
		h0.8v0.8H1.7V3.6z M3.9,7C3.8,6.5,4.2,6.1,4.7,6c0.5-0.1,0.9,0.3,1,0.8c0,0.1,0,0.1,0,0.2H3.9 M6.4,7.7V7c0-0.9-0.7-1.7-1.6-1.7
		c0,0-0.1,0-0.1,0C4,5.2,3.1,5.8,3.1,7.4c0,1.7,1,2.1,1.8,2.1c0.6,0,1.1-0.2,1.5-0.6L5.8,8.3C5.5,8.5,5.2,8.7,4.9,8.7
		c-0.5,0-0.9-0.3-1-0.9c0-0.1,0-0.1,0-0.2L6.4,7.7z M7.1,4h0.8v1.2h0.6v0.6H7.9v2.4c0,0.2,0.1,0.3,0.3,0.3h0.3v0.8H8.1
		c-0.5,0-1-0.4-1-0.9c0,0,0-0.1,0-0.1V5.9H6.7V5.3h0.4L7.1,4z M11.3,6.8c0.5-0.1,0.9,0.3,1,0.8c0.1,0.5-0.3,0.9-0.8,1
		c-0.1,0-0.1,0-0.2,0H9.9V6.8H11.3 M9.1,9.4h2.4c0.9,0,1.6-0.7,1.6-1.5c0,0,0-0.1,0-0.1c0-0.6-0.3-1.2-0.9-1.3
		C12.7,6.3,13,5.7,13,5.2c0-0.9-0.6-1.5-1.7-1.5H9.1L9.1,9.4 M11.2,4.4c0.5-0.1,0.9,0.3,0.9,0.7c0.1,0.5-0.3,0.9-0.7,0.9
		c-0.1,0-0.1,0-0.2,0H9.9V4.4L11.2,4.4z M13.6,3.6h0.8v4.7c0,0.2,0.1,0.3,0.3,0.3H15v0.8h-0.4c-0.6,0-1.1-0.3-1.1-1V3.6z M15.3,5.3
		h0.8v2.4c0,0.4,0.3,0.8,0.7,0.9c0.4,0,0.8-0.3,0.9-0.7c0,0,0-0.1,0-0.1V5.3h0.8v4.1h-0.8V8.9c-0.3,0.3-0.6,0.5-1.1,0.5
		c-0.8,0-1.4-0.6-1.4-1.4c0,0,0,0,0,0L15.3,5.3z M19.9,7c-0.1-0.5,0.3-0.9,0.8-1c0,0,0.1,0,0.1,0c0.5,0,0.8,0.3,0.9,1H19.9
		 M22.4,7.7V7c0-0.9-0.7-1.7-1.6-1.7c0,0-0.1,0-0.1,0c-0.8,0-1.7,0.5-1.7,2.1c0,1.7,1,2.1,1.8,2.1c0.6,0,1.1-0.2,1.5-0.7l-0.6-0.5
		c-0.2,0.2-0.6,0.4-0.9,0.4c-0.5,0-0.9-0.4-1-0.9c0,0,0-0.1,0-0.1L22.4,7.7z"/>
	<path class="st0" d="M22.7,5.2c0.2,0,0.4,0.2,0.4,0.4c0,0.2-0.2,0.4-0.4,0.4l0,0c-0.2,0-0.4-0.2-0.4-0.4
		C22.4,5.4,22.5,5.2,22.7,5.2z M23,5.6c0-0.2-0.1-0.3-0.3-0.3c-0.2,0-0.3,0.1-0.3,0.3c0,0.2,0.1,0.3,0.3,0.3C22.9,5.9,23,5.8,23,5.6
		C23,5.6,23,5.6,23,5.6z"/>
	<path class="st0" d="M22.8,5.6c0.1,0,0.1-0.1,0.1-0.1c0,0,0,0,0,0c0-0.1-0.1-0.1-0.1-0.1h-0.2v0.4h0.1V5.6L22.8,5.6l0,0.2h0.1
		L22.8,5.6z M22.7,5.6V5.4h0.1c0.1,0,0.1,0,0.1,0.1C22.8,5.6,22.8,5.6,22.7,5.6L22.7,5.6z"/>
</g>
<path class="st0" d="M27.8,7.7c0,0-0.3,0.1-0.7,0.1c-0.3,0.5-0.5,1.3-0.5,1.3l-0.1,0.1l0-0.2L26.3,9l0-0.3l-0.1,0.1l0-0.2L26,8.9
	l-0.1-0.1c0.4-1.3,0.9-2.4,0.9-2.4l0.1-0.1l-0.1-0.1l0.1-0.1l-0.1-0.1L27.2,6L27,5.9l0.1-0.1L27,5.7c0.5,0,0.9-0.1,1.3,0
	c0.4,0,0.6,0.5,0.4,1.1C28.5,7.3,28.2,7.5,27.8,7.7z M27.7,6.3c0,0-0.1,0.2-0.3,0.7c0.3,0,0.4-0.1,0.6-0.4
	C28.1,6.4,27.9,6.3,27.7,6.3z"/>
<path class="st0" d="M30,6.9L30.2,7l-0.2,0.1l0.1,0.1c-0.2,0-0.5,0-0.7,0l-0.2,0.3l0.6,0l0,0.1l-0.2,0.1l0.2,0.1l-0.1,0.1L29.9,8
	l0,0.1l-0.7,0L29,8.4c0.2,0,0.5,0,0.7,0l-0.1,0.2l0.1,0.1l-0.2,0.1l0.2,0.1L29.6,9c-0.4,0.1-0.9,0-1.2,0l0.1-0.2l-0.1-0.1l0-0.2
	l-0.2,0.1c0.1-0.6,0.3-1.2,0.6-1.7L29,7.1L29.1,7L29,6.8l0.2,0l-0.1-0.1c0.4-0.1,0.9,0,1.2,0l-0.1,0.1l0.1,0.1L30,6.9z"/>
<path class="st0" d="M31.7,6.8l0,0.2l-0.3-0.1l0.1,0.2l-0.1,0l0,0.2c-0.2-0.1-0.5,0-0.6,0.2c-0.1,0.2-0.2,0.6-0.2,0.8
	c0.1,0.2,0.3,0.1,0.5,0l-0.1,0.2l0.1,0l-0.2,0.2l0.2,0l-0.1,0.1l0.1,0.1c-0.5,0.3-1,0.2-1.2-0.2c-0.2-0.5,0-1.3,0.3-1.7
	c0.4-0.5,0.9-0.7,1.4-0.3L31.7,6.8z"/>
<path class="st0" d="M33,7.9l0.3,1l-0.1,0l-0.1-0.2L33,9l-0.1-0.1l-0.1,0.2L32.7,9l-0.1,0.1l-0.2-0.8L32.1,9L32,8.9l-0.1,0.1V8.6
	L31.7,9l0-0.2L31.5,9c0.1-0.6,0.6-1.7,0.9-2.4l0.1,0.1l0.2-0.2l0,0.4l0.2-0.3l0.1,0.1l0.1-0.1L33,6.7l-0.3,0.6l0.7-0.8l0.1,0.1
	l0.2-0.1l-0.1,0.3l0.3-0.2l0,0.1l0.2-0.1v0.1L33,7.9z"/>
<path class="st0" d="M35.3,9l-0.2-0.1L35,9l-0.1-0.2L34.8,9l-0.1-0.1L34.6,9l0.1-0.3h-0.5L33.9,9l-0.1-0.1L33.7,9l0-0.3L33.5,9
	l0-0.1l-0.3,0.1c0.2-0.5,0.9-1.7,1.4-2.4l0.1,0.2l0.2-0.1l0.1,0.3l0.3-0.3l0.1,0.1l0.2-0.1C35.4,7.2,35.3,8.4,35.3,9z M34.7,7.4
	c-0.1,0.2-0.3,0.5-0.4,0.7h0.3L34.7,7.4L34.7,7.4z"/>
<path class="st0" d="M37.1,8.7c-0.5,0.4-0.9,0.4-1.4,0.2l0.1-0.1l-0.1-0.1l0.1-0.1l-0.2,0l0-0.1l-0.2,0.1l-0.1-0.1
	c0.4-1.3,0.8-2.1,0.8-2.1l0.1-0.1l-0.1-0.1l0.1-0.1l-0.1-0.1L36.5,6l-0.1-0.1l0.1-0.1l-0.1-0.1c0.4-0.1,0.9-0.1,1.2,0
	c0.4,0.1,0.5,0.5,0.4,1C38,7.3,37.7,8.3,37.1,8.7z M37,6.3c-0.1,0.2-0.4,0.8-0.5,1.2c-0.1,0.3-0.2,0.5-0.3,0.7
	c0.1,0,0.1,0.1,0.2,0.1c0.2,0,0.3-0.1,0.5-0.4c0.2-0.3,0.4-0.8,0.4-1.1C37.4,6.5,37.3,6.3,37,6.3z"/>
<path class="st0" d="M39.6,6.9L39.8,7l-0.2,0.1l0.1,0.1c-0.2,0-0.5,0-0.7,0l-0.2,0.3l0.6,0l0,0.1l-0.2,0.1l0.2,0.1l-0.1,0.1L39.4,8
	l0,0.1l-0.7,0l-0.1,0.3c0.2,0,0.5,0,0.7,0l-0.1,0.2l0.1,0.1L39,8.8l0.2,0.1L39.2,9c-0.4,0.1-0.9,0-1.2,0l0.1-0.2L38,8.7l0-0.2
	l-0.2,0.1c0.1-0.6,0.3-1.2,0.6-1.7l0.1,0.1L38.7,7l-0.1-0.2l0.2,0l-0.1-0.1c0.4-0.1,0.9,0,1.2,0l-0.1,0.1l0.1,0.1L39.6,6.9z"/>
<path class="st0" d="M41.5,6.8l0,0.1l-0.2-0.1l0.2,0.3l-0.1,0l0.1,0.1l-0.1,0c-0.2-0.2-0.4-0.2-0.5-0.1c-0.1,0-0.2,0.2,0.1,0.4
	c0.3,0.2,0.4,0.6,0.3,0.9c-0.1,0.3-0.4,0.5-0.7,0.5c-0.3,0.1-0.6,0-0.9-0.4l0.1-0.1l0-0.1l0.2,0.1l-0.1-0.3l0.1,0l0-0.2
	c0.3,0.3,0.4,0.3,0.5,0.2c0.1-0.2,0-0.3-0.4-0.6c-0.3-0.3-0.1-0.9,0.2-1.1c0.3-0.1,0.7-0.3,1.2,0.1L41.5,6.8z"/>
<path class="st0" d="M43.4,7l0.2,0.1l-0.1,0.1l0,0.1h-0.6c-0.2,0.5-0.5,1.3-0.6,1.7l-0.1-0.1L42,9.1l-0.1-0.2L41.8,9l-0.1-0.1
	L41.5,9l0,0c0.1-0.4,0.3-1.1,0.6-1.6h-0.6l0.1-0.1l-0.1-0.1L41.7,7l-0.1-0.1l0.3-0.1l-0.2-0.1l0-0.1h1.9l-0.1,0.1l0.2,0.1L43.4,7z"
	/>
<line class="st1" x1="24.4" y1="4" x2="24.4" y2="10.6"/>
</svg>
