<?xml version="1.0" encoding="utf-8"?>
<!-- Generator: Adobe Illustrator 22.1.0, SVG Export Plug-In . SVG Version: 6.00 Build 0)  -->
<svg version="1.1" id="Layer_1" xmlns="http://www.w3.org/2000/svg" xmlns:xlink="http://www.w3.org/1999/xlink" x="0px" y="0px"
	 viewBox="0 0 43.8 14.4" style="enable-background:new 0 0 43.8 14.4;" xml:space="preserve">
<style type="text/css">
	.st0{fill:#FFFFFF;}
	.st1{font-family:'CCMonsterMash';}
	.st2{font-size:4.0522px;}
	.st3{fill:none;stroke:#FFFFFF;stroke-width:0.504;stroke-miterlimit:10;}
</style>
<g id="Layer_1_1_">
	<path class="st0" d="M1.7,5.3h0.8v4.4c0,0.6-0.5,1.1-1.1,1.2c0,0-0.1,0-0.1,0H1v-0.8h0.2c0.3,0,0.5-0.1,0.5-0.4L1.7,5.3 M1.7,3.6
		h0.8v0.8H1.7V3.6z M3.9,7C3.8,6.5,4.2,6.1,4.7,6c0.5-0.1,0.9,0.3,1,0.8c0,0.1,0,0.1,0,0.2H3.9 M6.4,7.7V7c0-0.9-0.7-1.7-1.6-1.7
		c0,0-0.1,0-0.1,0C4,5.2,3.1,5.8,3.1,7.4c0,1.7,1,2.1,1.8,2.1c0.6,0,1.1-0.2,1.5-0.6L5.8,8.3C5.5,8.5,5.2,8.7,4.9,8.7
		c-0.5,0-0.9-0.3-1-0.9c0-0.1,0-0.1,0-0.2L6.4,7.7z M7.1,4h0.8v1.2h0.6v0.6H7.9v2.4c0,0.2,0.1,0.3,0.3,0.3h0.3v0.8H8.1
		c-0.5,0-1-0.4-1-0.9c0,0,0-0.1,0-0.1V5.9H6.7V5.3h0.4L7.1,4z M11.3,6.8c0.5-0.1,0.9,0.3,1,0.8c0.1,0.5-0.3,0.9-0.8,1
		c-0.1,0-0.1,0-0.2,0H9.9V6.8H11.3 M9.1,9.4h2.4c0.9,0,1.6-0.7,1.6-1.5c0,0,0-0.1,0-0.1c0-0.6-0.3-1.2-0.9-1.3
		C12.7,6.3,13,5.7,13,5.2c0-0.9-0.6-1.5-1.7-1.5H9.1L9.1,9.4 M11.2,4.4c0.5-0.1,0.9,0.3,0.9,0.7c0.1,0.5-0.3,0.9-0.7,0.9
		c-0.1,0-0.1,0-0.2,0H9.9V4.4L11.2,4.4z M13.6,3.6h0.8v4.7c0,0.2,0.1,0.3,0.3,0.3H15v0.8h-0.4c-0.6,0-1.1-0.3-1.1-1V3.6z M15.3,5.3
		h0.8v2.4c0,0.4,0.3,0.8,0.7,0.9c0.4,0,0.8-0.3,0.9-0.7c0,0,0-0.1,0-0.1V5.3h0.8v4.1h-0.8V8.9c-0.3,0.3-0.6,0.5-1.1,0.5
		c-0.8,0-1.4-0.6-1.4-1.4c0,0,0,0,0,0L15.3,5.3z M19.9,7c-0.1-0.5,0.3-0.9,0.8-1c0,0,0.1,0,0.1,0c0.5,0,0.8,0.3,0.9,1H19.9
		 M22.4,7.7V7c0-0.9-0.7-1.7-1.6-1.7c0,0-0.1,0-0.1,0c-0.8,0-1.7,0.5-1.7,2.1c0,1.7,1,2.1,1.8,2.1c0.6,0,1.1-0.2,1.5-0.7l-0.6-0.5
		c-0.2,0.2-0.6,0.4-0.9,0.4c-0.5,0-0.9-0.4-1-0.9c0,0,0-0.1,0-0.1L22.4,7.7z"/>
	<path class="st0" d="M22.7,5.2c0.2,0,0.4,0.2,0.4,0.4c0,0.2-0.2,0.4-0.4,0.4l0,0c-0.2,0-0.4-0.2-0.4-0.4
		C22.4,5.4,22.5,5.2,22.7,5.2z M23,5.6c0-0.2-0.1-0.3-0.3-0.3c-0.2,0-0.3,0.1-0.3,0.3c0,0.2,0.1,0.3,0.3,0.3C22.9,5.9,23,5.8,23,5.6
		C23,5.6,23,5.6,23,5.6z"/>
	<path class="st0" d="M22.8,5.6c0.1,0,0.1-0.1,0.1-0.1c0,0,0,0,0,0c0-0.1-0.1-0.1-0.1-0.1h-0.2v0.4h0.1V5.6L22.8,5.6l0,0.2h0.1
		L22.8,5.6z M22.7,5.6V5.4h0.1c0.1,0,0.1,0,0.1,0.1C22.8,5.6,22.8,5.6,22.7,5.6L22.7,5.6z"/>
</g>
<text transform="matrix(1 0 0 1 26.0986 8.9785)" class="st0 st1 st2">PeckaDest</text>
<line class="st3" x1="24.4" y1="4" x2="24.4" y2="10.6"/>
</svg>
